<?xml version="1.0"?>
<svg version="1.1" xmlns="http://www.w3.org/2000/svg" width="400px" height="200px" style="border: dashed 2px #aaa"><path fill="#" d="M80.2,104.05l6.9,0l0,2.4l-6.9,0l0,7.35l6.9,0l0.6-3l1.95,0l0,5.4l-15.15,0l0-1.8l2.55-0.6l0-16.2l-2.55-0.6l0-1.65l5.7-0.15l9.15,0l0,5.1l-1.95,0l-0.75-2.7l-6.45,0l0,6.45z M111.208,114.4l0,1.65l-5.1,0.15l-0.24-1.71c-0.87,0.87-2.43,2.01-4.71,2.01c-4.35,0-6.3-3.15-6.3-7.8c0-5.1,2.55-8.7,7.95-8.7c1.11,0,2.07,0.21,2.85,0.48l0-4.98l-2.55-0.6l0-1.65l5.55-0.15l0,20.7z M105.658,111.85l0-8.85s-1.05-0.6-3.15-0.6c-3.48,0-4.5,2.7-4.5,6s1.05,5.7,3.75,5.7c2.55,0,3.9-2.25,3.9-2.25z M132.766,114.4l0,1.65l-4.95,0.15l-0.3-2.1c-0.72,0.63-3.09,2.4-5.55,2.4c-3.3,0-4.8-2.07-4.8-5.37l0-8.43l-2.55-0.6l0-1.65l5.55-0.15l0,10.53c0,2.1,0.75,3.12,2.7,3.12c2.55,0,4.35-2.37,4.35-2.37l0-8.88l-2.55-0.6l0-1.65l5.55-0.15l0,13.5z M142.474,104.35l6.9,0l0,2.4l-6.9,0l0,7.05l3,0.6l0,1.8l-8.7,0l0-1.8l2.55-0.6l0-16.2l-2.55-0.6l0-1.65l5.7-0.15l9.15,0l0,4.95l-1.95,0l-0.75-2.55l-6.45,0l0,6.75z M163.582,100c4.5,0,7.05,3.15,7.05,7.95c0,5.1-3,8.55-7.5,8.55s-7.2-2.7-7.2-8.1c0-5.1,3.15-8.4,7.65-8.4z M163.432,102.4c-3,0-4.35,1.95-4.35,5.85c0,3.6,1.2,5.85,4.2,5.85s4.2-2.1,4.2-6c0-3.3-1.05-5.7-4.05-5.7z M180.04,100.3l0.27,2.19c0.75-0.84,2.49-2.49,4.53-2.49c1.5,0,2.7,0.45,2.7,0.45l-0.15,4.35l-1.95,0l-0.45-2.25c-2.25,0-3.69,1.47-4.35,2.34l0,8.91l3,0.75l0,1.65l-8.55,0l0-1.65l2.55-0.75l0-11.1l-2.55-0.6l0-1.65z M206.698,102.1l-2.91,0.42s0.81,1.08,0.81,3.03c0,4.05-2.7,5.85-6.6,5.85c-1.35,0-2.25-0.27-2.25-0.27l-0.15,2.82l4.65,0c3.9,0,6,1.5,6,4.35c0,3.3-2.55,5.4-7.8,5.4c-4.2,0-7.2-1.05-7.2-4.35c0-2.7,3.15-3.75,3.15-3.75s-1.8-0.15-1.8-1.71c0-0.99,1.56-3.39,1.56-3.39s-2.31-1.05-2.31-4.65c0-3.9,2.7-5.85,6.6-5.85c1.95,0,3,0.57,3,0.57l5.25-0.12l0,1.65z M198.298,102.1c-2.4,0-3.45,1.2-3.45,3.6c0,2.1,1.05,3.6,3.3,3.6c2.4,0,3.45-1.05,3.45-3.6c0-2.25-1.05-3.6-3.3-3.6z M199.498,116.2l-3.3,0s-1.95,0.9-1.95,2.7c0,2.1,1.8,2.55,4.65,2.55c3,0,4.5-0.9,4.5-2.85s-1.5-2.4-3.9-2.4z M224.206,108.7l-10.35,0c0,3.3,1.77,5.4,4.35,5.4c3,0,5.04-1.65,5.04-1.65l1.05,1.56s-2.79,2.49-6.39,2.49c-4.8,0-7.2-3.15-7.2-8.1c0-4.8,3-8.4,7.35-8.4s6.3,2.55,6.3,7.05c0,0.75-0.15,1.59-0.15,1.65z M213.976,106.45l7.2,0c0-2.25-0.87-4.11-3.27-4.11s-3.75,1.86-3.93,4.11z"/><path fill="#" d=""/></svg>
